<?xml version="1.0" encoding="UTF-8" standalone="no"?>
<svg
   xmlns:dc="http://purl.org/dc/elements/1.1/"
   xmlns:cc="http://creativecommons.org/ns#"
   xmlns:rdf="http://www.w3.org/1999/02/22-rdf-syntax-ns#"
   xmlns:svg="http://www.w3.org/2000/svg"
   xmlns="http://www.w3.org/2000/svg"
   xmlns:sodipodi="http://sodipodi.sourceforge.net/DTD/sodipodi-0.dtd"
   xmlns:inkscape="http://www.inkscape.org/namespaces/inkscape"
   width="256"
   height="256"
   viewBox="0 0 100 100"
   version="1.1"
   id="svg6"
   sodipodi:docname="favicon.svg"
   inkscape:version="1.0.2-2 (e86c870879, 2021-01-15)">
  <metadata
     id="metadata12">
    <rdf:RDF>
      <cc:Work
         rdf:about="">
        <dc:format>image/svg+xml</dc:format>
        <dc:type
           rdf:resource="http://purl.org/dc/dcmitype/StillImage" />
        <dc:title></dc:title>
      </cc:Work>
    </rdf:RDF>
  </metadata>
  <defs
     id="defs10" />
  <sodipodi:namedview
     pagecolor="#ffffff"
     bordercolor="#666666"
     borderopacity="1"
     objecttolerance="10"
     gridtolerance="10"
     guidetolerance="10"
     inkscape:pageopacity="0"
     inkscape:pageshadow="2"
     inkscape:window-width="1920"
     inkscape:window-height="1017"
     id="namedview8"
     showgrid="false"
     inkscape:zoom="3.3203125"
     inkscape:cx="128"
     inkscape:cy="128"
     inkscape:window-x="-8"
     inkscape:window-y="-8"
     inkscape:window-maximized="1"
     inkscape:current-layer="svg6" />
  <rect
     width="100"
     height="100"
     rx="50"
     fill="#070707"
     id="rect2" />
  <path
     fill="#fff"
     d="M46.45 32.50L54.50 32.50L39.35 67.50L31.35 67.50L16.25 32.50L25.00 32.50L35.65 57.50L46.45 32.50ZM68.90 68.10Q64.75 68.10 60.88 66.97Q57 65.85 54.65 64.05L54.65 64.05L57.40 57.95Q59.65 59.60 62.75 60.60Q65.85 61.60 68.95 61.60L68.95 61.60Q72.40 61.60 74.05 60.58Q75.70 59.55 75.70 57.85L75.70 57.85Q75.70 56.60 74.72 55.77Q73.75 54.95 72.22 54.45Q70.70 53.95 68.10 53.35L68.10 53.35Q64.10 52.40 61.55 51.45Q59 50.50 57.17 48.40Q55.35 46.30 55.35 42.80L55.35 42.80Q55.35 39.75 57 37.27Q58.65 34.80 61.98 33.35Q65.30 31.90 70.10 31.90L70.10 31.90Q73.45 31.90 76.65 32.70Q79.85 33.50 82.25 35L82.25 35L79.75 41.15Q74.90 38.40 70.05 38.40L70.05 38.40Q66.65 38.40 65.03 39.50Q63.40 40.60 63.40 42.40L63.40 42.40Q63.40 44.20 65.28 45.08Q67.15 45.95 71 46.80L71 46.80Q75 47.75 77.55 48.70Q80.10 49.65 81.92 51.70Q83.75 53.75 83.75 57.25L83.75 57.25Q83.75 60.25 82.08 62.73Q80.40 65.20 77.05 66.65Q73.70 68.10 68.90 68.10L68.90 68.10Z"
     id="path4" />
</svg>
