<!-- Generated by IcoMoon.io -->
<svg version="1.1" xmlns="http://www.w3.org/2000/svg" width="1280" height="1024" viewBox="0 0 1280 1024">
<title></title>
<g id="icomoon-ignore">
</g>
<path fill="#000" d="M603.61 757.753c-0.6 1.2-1.2 2.16 0 0zM1101.81 583.753c-0.020 0-0.043 0-0.066 0-42.22 0-82.111 9.971-117.447 27.687l1.513-0.687c-11.8-23.8-24-44.6-26-60.2-2.4-18.2-5-29-2.2-50.6s15.4-52.2 15.2-54.4-2.8-13.2-28.6-13.4-48 5-50.58 11.8c-4.071 10.643-7.735 23.452-10.343 36.64l-0.257 1.56c-4.6 23.4-51.58 107-78.18 150.6-8.8-17-16.2-32-17.8-44-2.4-18.2-5-29-2.2-50.6s15.4-52.2 15.2-54.4-2.8-13.2-28.58-13.4-48 5-50.6 11.8-5.4 22.8-10.6 38.2-67.78 154.6-84.16 190.8c-8.4 18.4-15.6 33.2-20.8 43.2-0.8 1.6-1.4 2.6-1.8 3.4 0.6-1 1-2 1-1.6-4.4 8.6-7 13.4-7 13.4v0.2c-3.4 6.4-7.2 12.2-9 12.2-1.2 0-3.8-16.8 0.6-39.8 9.4-48.4 31.6-123.6 31.4-126.2-0.2-1.4 4.2-14.4-14.6-21.4-18.2-6.6-24.8 4.4-26.4 4.4s-2.8 4-2.8 4 20.2-84.8-38.78-84.8c-36.8 0-88 40.4-113.16 77-15.8 8.6-50 27.2-86 47-13.8 7.6-28 15.4-41.4 22.8-1-1-1.8-2-2.8-3-71.58-76.4-203.8-130.4-198.14-233 2-37.4 15-135.6 254.2-254.8 196-97.6 352.8-70.8 379.6-11.2 38.8 85-83.78 243.2-287.4 266-77.58 8.6-118.36-21.4-128.56-32.6-10.6-11.8-12.2-12.4-16.2-10.2-6.6 3.6-2.4 14 0 20.2 6 15.8 31 43.8 73.58 57.8 37.4 12.2 128.36 19 238.4-23.6 123.56-47.6 219.8-180.2 191.54-291.2-28.58-112.76-215.58-149.76-392.38-86.96-105.38 37.4-219.4 96.2-301.4 172.8-97.38 91.2-112.96 170.6-106.56 203.8 22.78 117.8 185.14 194.6 250.2 251.4-3.2 1.8-6.2 3.4-9 5-32.58 16.2-156.36 81-187.34 149.4-35 77.6 5.8 133.2 32.58 140.8 83.58 23.2 169.16-18.6 215.2-87.2s40.4-158.2 19.2-199c-0.2-0.6-0.6-1-0.8-1.6 8.4-5 17-10 25.6-15 16.58-9.8 32.78-18.8 46.98-26.6-8 21.6-13.8 47.6-16.8 85.2-3.6 44 14.6 101 38.2 123.4 10.4 9.8 22.98 10 30.78 10 27.6 0 40-22.8 53.78-50 17-33.2 32-71.8 32-71.8s-18.8 104.4 32.6 104.4c18.78 0 37.58-24.2 46-36.6v0.2s0.4-0.8 1.4-2.4c2-3 3-4.8 3-4.8v-0.6c7.6-13 24.2-42.8 49.18-92 32.4-63.6 63.38-143 63.38-143 3.492 20.194 7.796 37.564 13.185 54.449l-0.785-2.849c5.6 19 17.4 39.8 26.8 60-7.6 10.4-12.2 16.4-12.2 16.4 0.016 0.159 0.089 0.299 0.2 0.4v0c-6 8-12.8 16.6-19.8 25-25.58 30.4-56 65.2-60 75.2-4.8 11.8-3.6 20.6 5.6 27.4 6.8 5.2 18.8 6 31.38 5 23-1.6 39.2-7.2 47-10.8 15.413-5.603 28.756-12.762 40.858-21.53l-0.478 0.33c25-18.4 40.2-44.8 38.8-79.6-0.8-19.2-7-38.4-14.6-56.4 2.2-3.2 4.6-6.6 6.8-10 39.46-57.84 70.060-121.24 70.060-121.24 3.492 20.194 7.796 37.564 13.185 54.449l-0.785-2.849c4.8 16.2 14.18 34 22.78 51.4-37.18 30.2-60.18 65.2-68.18 88.2-14.8 42.6-3.2 61.8 18.6 66.2 9.8 2 23.8-2.6 34.2-7 16.482-5.573 30.786-13.102 43.625-22.511l-0.445 0.311c25-18.4 49.18-44.2 47.58-79.2-0.6-15.8-5-31.6-10.8-46.8 31.4-13.2 72.18-20.4 124.18-14.4 111.36 13 133.16 82.6 128.96 111.6s-27.6 45.2-35.4 50-10.2 6.6-9.6 10.2c1 5.2 4.6 5 11.2 3.8 9.2-1.6 58.38-23.6 60.58-77.4 3.2-68-62.18-142.8-178-142.2zM243.41 873.153c-36.78 40.2-88.38 55.4-110.56 42.6-23.62-13.8-14.22-73 31.16-115.8 27.6-26 63.18-50 86.78-64.8 5.4-3.2 13.2-8 22.8-13.8 1.6-1 2.4-1.4 2.4-1.4 1.8-1.2 3.8-2.2 5.8-3.4 16.58 60.8 0.6 114.4-38.2 156.6zM512.21 690.353c-12.8 31.4-39.78 111.4-56.18 107.2-14-3.6-22.6-64.6-2.8-124.6 10-30.2 31.2-66.2 43.8-80.2 20.18-22.6 42.38-29.8 47.58-20.8 7 11.8-24.4 98.8-32.4 118.4zM734.21 796.353c-5.4 2.8-10.4 4.6-12.8 3.2-1.8-1 2.2-4.8 2.2-4.8s27.8-29.8 38.8-43.4c6.4-8 13.8-17.4 21.78-27.8 0 1 0.2 2 0.2 3.2-0.26 35.8-34.64 60-50.24 69.6zM905.37 757.353c-4-2.8-3.4-12.2 10-41.4 5.2-11.4 17.18-30.6 38-49 2.246 6.416 3.624 13.818 3.799 21.517l0.001 0.083c-0.2 45-32.4 61.8-51.78 68.8z"></path>
</svg>
